<mxfile host="app.diagrams.net" modified="2024-05-17T13:27:59.188Z" agent="Mozilla/5.0 (Windows NT 10.0; Win64; x64) AppleWebKit/537.36 (KHTML, like Gecko) Chrome/124.0.0.0 Safari/537.36" etag="2XjdF-dNRdWU-wD3hutP" version="24.3.1" type="device">
  <diagram name="Página-1" id="f_x7acSurpHiJBq9WvCI">
    <mxGraphModel dx="1707" dy="460" grid="1" gridSize="10" guides="1" tooltips="1" connect="1" arrows="1" fold="1" page="1" pageScale="1" pageWidth="827" pageHeight="1169" math="0" shadow="0">
      <root>
        <mxCell id="0" />
        <mxCell id="1" parent="0" />
        <mxCell id="SEfgsGK2yQJNxwUx0ZKF-1" value="Vendedor" style="shape=umlActor;verticalLabelPosition=bottom;verticalAlign=top;html=1;" vertex="1" parent="1">
          <mxGeometry x="-150" y="475" width="30" height="60" as="geometry" />
        </mxCell>
        <mxCell id="SEfgsGK2yQJNxwUx0ZKF-2" value="Mostrar Automovel" style="ellipse;whiteSpace=wrap;html=1;" vertex="1" parent="1">
          <mxGeometry x="-400" y="470" width="140" height="70" as="geometry" />
        </mxCell>
        <mxCell id="SEfgsGK2yQJNxwUx0ZKF-3" value="Gerente" style="shape=umlActor;verticalLabelPosition=bottom;verticalAlign=top;html=1;" vertex="1" parent="1">
          <mxGeometry x="-150" y="335" width="30" height="60" as="geometry" />
        </mxCell>
        <mxCell id="SEfgsGK2yQJNxwUx0ZKF-4" value="" style="endArrow=block;startArrow=block;endFill=1;startFill=1;html=1;rounded=0;exitX=0.5;exitY=0.5;exitDx=0;exitDy=0;exitPerimeter=0;entryX=0;entryY=0.5;entryDx=0;entryDy=0;" edge="1" parent="1" source="SEfgsGK2yQJNxwUx0ZKF-9" target="SEfgsGK2yQJNxwUx0ZKF-2">
          <mxGeometry width="160" relative="1" as="geometry">
            <mxPoint x="-570" y="595" as="sourcePoint" />
            <mxPoint x="-410" y="595" as="targetPoint" />
          </mxGeometry>
        </mxCell>
        <mxCell id="SEfgsGK2yQJNxwUx0ZKF-5" value="" style="endArrow=block;startArrow=block;endFill=1;startFill=1;html=1;rounded=0;exitX=1;exitY=0.5;exitDx=0;exitDy=0;entryX=0.5;entryY=0.5;entryDx=0;entryDy=0;entryPerimeter=0;" edge="1" parent="1" source="SEfgsGK2yQJNxwUx0ZKF-2" target="SEfgsGK2yQJNxwUx0ZKF-1">
          <mxGeometry width="160" relative="1" as="geometry">
            <mxPoint x="-525" y="515" as="sourcePoint" />
            <mxPoint x="-390" y="515" as="targetPoint" />
          </mxGeometry>
        </mxCell>
        <mxCell id="SEfgsGK2yQJNxwUx0ZKF-6" value="Vender Automovel" style="ellipse;whiteSpace=wrap;html=1;" vertex="1" parent="1">
          <mxGeometry x="-400" y="585" width="140" height="70" as="geometry" />
        </mxCell>
        <mxCell id="SEfgsGK2yQJNxwUx0ZKF-7" value="" style="endArrow=block;startArrow=block;endFill=1;startFill=1;html=1;rounded=0;exitX=0.5;exitY=0;exitDx=0;exitDy=0;entryX=0.5;entryY=1;entryDx=0;entryDy=0;" edge="1" parent="1" source="SEfgsGK2yQJNxwUx0ZKF-6" target="SEfgsGK2yQJNxwUx0ZKF-2">
          <mxGeometry width="160" relative="1" as="geometry">
            <mxPoint x="-250" y="515" as="sourcePoint" />
            <mxPoint x="-125" y="515" as="targetPoint" />
          </mxGeometry>
        </mxCell>
        <mxCell id="SEfgsGK2yQJNxwUx0ZKF-9" value="Cliente" style="shape=umlActor;verticalLabelPosition=bottom;verticalAlign=top;html=1;" vertex="1" parent="1">
          <mxGeometry x="-540" y="475" width="30" height="60" as="geometry" />
        </mxCell>
        <mxCell id="SEfgsGK2yQJNxwUx0ZKF-11" value="Catalogo" style="ellipse;whiteSpace=wrap;html=1;" vertex="1" parent="1">
          <mxGeometry x="-400" y="330" width="140" height="70" as="geometry" />
        </mxCell>
        <mxCell id="SEfgsGK2yQJNxwUx0ZKF-12" value="" style="endArrow=block;startArrow=block;endFill=1;startFill=1;html=1;rounded=0;exitX=1;exitY=0.5;exitDx=0;exitDy=0;entryX=0.5;entryY=0.5;entryDx=0;entryDy=0;entryPerimeter=0;" edge="1" parent="1" source="SEfgsGK2yQJNxwUx0ZKF-11" target="SEfgsGK2yQJNxwUx0ZKF-3">
          <mxGeometry width="160" relative="1" as="geometry">
            <mxPoint x="-250" y="515" as="sourcePoint" />
            <mxPoint x="-125" y="515" as="targetPoint" />
          </mxGeometry>
        </mxCell>
        <mxCell id="SEfgsGK2yQJNxwUx0ZKF-13" value="Remover" style="ellipse;whiteSpace=wrap;html=1;" vertex="1" parent="1">
          <mxGeometry x="-595" y="330" width="140" height="70" as="geometry" />
        </mxCell>
        <mxCell id="SEfgsGK2yQJNxwUx0ZKF-14" value="Adicionar Novo Automovel" style="ellipse;whiteSpace=wrap;html=1;" vertex="1" parent="1">
          <mxGeometry x="-400" y="210" width="140" height="70" as="geometry" />
        </mxCell>
        <mxCell id="SEfgsGK2yQJNxwUx0ZKF-15" value="" style="endArrow=block;startArrow=block;endFill=1;startFill=1;html=1;rounded=0;exitX=1;exitY=0.5;exitDx=0;exitDy=0;entryX=0;entryY=0.5;entryDx=0;entryDy=0;" edge="1" parent="1" source="SEfgsGK2yQJNxwUx0ZKF-13" target="SEfgsGK2yQJNxwUx0ZKF-11">
          <mxGeometry width="160" relative="1" as="geometry">
            <mxPoint x="-250" y="375" as="sourcePoint" />
            <mxPoint x="-125" y="375" as="targetPoint" />
          </mxGeometry>
        </mxCell>
        <mxCell id="SEfgsGK2yQJNxwUx0ZKF-16" value="" style="endArrow=block;startArrow=block;endFill=1;startFill=1;html=1;rounded=0;exitX=1;exitY=0.5;exitDx=0;exitDy=0;entryX=0.5;entryY=0.5;entryDx=0;entryDy=0;entryPerimeter=0;" edge="1" parent="1" source="SEfgsGK2yQJNxwUx0ZKF-14" target="SEfgsGK2yQJNxwUx0ZKF-3">
          <mxGeometry width="160" relative="1" as="geometry">
            <mxPoint x="-320" y="330" as="sourcePoint" />
            <mxPoint x="-265" y="330" as="targetPoint" />
          </mxGeometry>
        </mxCell>
        <mxCell id="SEfgsGK2yQJNxwUx0ZKF-17" value="" style="endArrow=block;startArrow=block;endFill=1;startFill=1;html=1;rounded=0;entryX=0.5;entryY=0;entryDx=0;entryDy=0;" edge="1" parent="1" target="SEfgsGK2yQJNxwUx0ZKF-11">
          <mxGeometry width="160" relative="1" as="geometry">
            <mxPoint x="-330" y="280" as="sourcePoint" />
            <mxPoint x="-125" y="375" as="targetPoint" />
          </mxGeometry>
        </mxCell>
        <mxCell id="SEfgsGK2yQJNxwUx0ZKF-18" value="" style="endArrow=block;startArrow=block;endFill=1;startFill=1;html=1;rounded=0;exitX=0.5;exitY=1;exitDx=0;exitDy=0;entryX=0.5;entryY=0;entryDx=0;entryDy=0;" edge="1" parent="1" source="SEfgsGK2yQJNxwUx0ZKF-11" target="SEfgsGK2yQJNxwUx0ZKF-2">
          <mxGeometry width="160" relative="1" as="geometry">
            <mxPoint x="-385" y="440" as="sourcePoint" />
            <mxPoint x="-260" y="440" as="targetPoint" />
          </mxGeometry>
        </mxCell>
        <mxCell id="SEfgsGK2yQJNxwUx0ZKF-19" value="Comissão" style="ellipse;whiteSpace=wrap;html=1;" vertex="1" parent="1">
          <mxGeometry x="-10" y="405" width="140" height="70" as="geometry" />
        </mxCell>
        <mxCell id="SEfgsGK2yQJNxwUx0ZKF-20" value="" style="endArrow=block;startArrow=block;endFill=1;startFill=1;html=1;rounded=0;exitX=1;exitY=0.5;exitDx=0;exitDy=0;entryX=0.5;entryY=1;entryDx=0;entryDy=0;" edge="1" parent="1" source="SEfgsGK2yQJNxwUx0ZKF-6" target="SEfgsGK2yQJNxwUx0ZKF-19">
          <mxGeometry width="160" relative="1" as="geometry">
            <mxPoint x="-150" y="610" as="sourcePoint" />
            <mxPoint x="10" y="610" as="targetPoint" />
            <Array as="points">
              <mxPoint x="60" y="620" />
            </Array>
          </mxGeometry>
        </mxCell>
        <mxCell id="SEfgsGK2yQJNxwUx0ZKF-21" value="" style="endArrow=block;startArrow=block;endFill=1;startFill=1;html=1;rounded=0;exitX=0;exitY=0.5;exitDx=0;exitDy=0;entryX=0.5;entryY=1;entryDx=0;entryDy=0;" edge="1" parent="1" source="SEfgsGK2yQJNxwUx0ZKF-6" target="SEfgsGK2yQJNxwUx0ZKF-13">
          <mxGeometry width="160" relative="1" as="geometry">
            <mxPoint x="-250" y="630" as="sourcePoint" />
            <mxPoint x="70" y="485" as="targetPoint" />
            <Array as="points">
              <mxPoint x="-600" y="620" />
              <mxPoint x="-600" y="430" />
              <mxPoint x="-525" y="430" />
            </Array>
          </mxGeometry>
        </mxCell>
        <mxCell id="SEfgsGK2yQJNxwUx0ZKF-22" value="" style="endArrow=block;startArrow=block;endFill=1;startFill=1;html=1;rounded=0;exitX=0.5;exitY=0.5;exitDx=0;exitDy=0;exitPerimeter=0;entryX=0;entryY=0.5;entryDx=0;entryDy=0;" edge="1" parent="1" source="SEfgsGK2yQJNxwUx0ZKF-1" target="SEfgsGK2yQJNxwUx0ZKF-19">
          <mxGeometry width="160" relative="1" as="geometry">
            <mxPoint x="-110" y="550" as="sourcePoint" />
            <mxPoint x="50" y="550" as="targetPoint" />
          </mxGeometry>
        </mxCell>
      </root>
    </mxGraphModel>
  </diagram>
</mxfile>
